<?xml version="1.0" encoding="UTF-8"?>
<svg id="Layer_1" xmlns="http://www.w3.org/2000/svg" version="1.1" viewBox="0 0 96.8 136.23">
  <!-- Generator: Adobe Illustrator 30.4.0, SVG Export Plug-In . SVG Version: 2.1.4 Build 226)  -->
  <defs>
    <style>
      .st0, .st1 {
        fill: #2bace2;
      }

      .st1 {
        fill-rule: evenodd;
      }
    </style>
  </defs>
  <g>
    <path class="st1" d="M11.67,36.29c17.41-20.29,47.96-22.62,68.25-5.22,20.29,17.41,22.62,47.96,5.22,68.25-17.41,20.29-47.96,22.62-68.25,5.22C-3.4,87.13-5.73,56.58,11.67,36.29h0ZM24.46,95.71c15.25,13.09,38.23,11.33,51.32-3.92,13.09-15.25,11.33-38.23-3.92-51.32s-38.23-11.33-51.32,3.92c-13.09,15.25-11.33,38.23,3.92,51.32Z"/>
    <rect class="st0" x="8.28" y="16.1" width="47.76" height="11.63" transform="translate(-5.41 32.05) rotate(-49.37)"/>
    <rect class="st0" x="40.84" y="108.5" width="47.76" height="11.63" transform="translate(-64.19 88.99) rotate(-49.37)"/>
  </g>
  <circle class="st0" cx="48.18" cy="68.35" r="21.98" transform="translate(-29.82 98.51) rotate(-75.96)"/>
</svg>