<?xml version="1.0" encoding="UTF-8"?>
<svg id="Layer_1" data-name="Layer 1" xmlns="http://www.w3.org/2000/svg" viewBox="0 0 572.13 233.37">
  <defs>
    <style>
      .cls-1, .cls-2 {
        fill: #fff;
      }

      .cls-3, .cls-4 {
        fill: #2bace2;
      }

      .cls-4, .cls-2 {
        fill-rule: evenodd;
      }
    </style>
  </defs>
  <g>
    <g>
      <path class="cls-4" d="m487,36.29c17.41-20.29,47.96-22.62,68.25-5.22,20.29,17.41,22.62,47.96,5.22,68.25-17.41,20.29-47.96,22.62-68.25,5.22-20.29-17.41-22.62-47.96-5.22-68.25Zm12.79,59.42c15.25,13.09,38.23,11.33,51.32-3.92,13.09-15.25,11.33-38.23-3.92-51.32-15.25-13.09-38.23-11.33-51.32,3.92-13.09,15.25-11.33,38.23,3.92,51.32Z"/>
      <rect class="cls-3" x="501.68" y="-1.97" width="11.63" height="47.76" transform="translate(136.61 -325.18) rotate(40.63)"/>
      <rect class="cls-3" x="534.24" y="90.44" width="11.63" height="47.76" transform="translate(204.63 -324.11) rotate(40.63)"/>
    </g>
    <circle class="cls-3" cx="523.51" cy="68.35" r="21.98"/>
  </g>
  <path class="cls-2" d="m457.71,206.23v-40.3c0-12.61,8.54-23.74,20.7-27.04,2.38-.65,4.85-.99,7.32-.99s4.94.34,7.32.99c12.16,3.3,20.7,14.43,20.7,27.04v40.3h-13.04v-40.3c0-8.22-6.78-14.99-14.99-14.99s-14.99,6.78-14.99,14.99v40.3h-13.04Z"/>
  <rect class="cls-1" x="457.79" y="138.88" width="12.64" height="25.34"/>
  <path class="cls-2" d="m185.03,178.92c2.77,9.05,11.18,15.36,20.8,15.36,6.72,0,13.01-3.07,17.14-8.35l.48-.62h14.59l-1.12,2.3c-5.79,11.91-17.85,19.47-31.1,19.47-19.09,0-34.56-15.47-34.56-34.56s15.47-34.56,34.56-34.56,34.56,15.47,34.56,34.56c0,1.68-.12,3.36-.37,5.03l-.2,1.37h-54.8Zm0-12.8h41.61c-2.77-9.05-11.18-15.36-20.8-15.36s-18.03,6.31-20.8,15.36h0Z"/>
  <path class="cls-2" d="m262.63,206.07h-12.99v-89.41h12.99v89.41h0Z"/>
  <path class="cls-4" d="m3.67,207.98v-13.38h21.53c2.13,0,4.1-.98,5.49-2.58,1.3-1.49,2.07-3.5,1.88-5.49-.37-3.9-3.9-5.71-7.41-6.19-2.54-.34-5.1-.48-7.64-.9-10.32-1.72-17.52-9.32-17.52-19.96,0-11.34,9.29-20.6,20.63-20.6h21.53v13.36h-21.53c-4,0-7.67,3.79-7.45,7.8.25,4.42,4.73,6.15,8.53,6.57,3.02.34,6.04.55,9,1.28,9.11,2.26,15.09,10.09,15.09,19.45,0,11.33-9.26,20.63-20.6,20.63H3.67Z"/>
  <path class="cls-2" d="m334.65,137.96c8.25,0,15.82,2.89,21.76,7.71v-6.68h12.6v29.85c.13,1.21.2,2.44.2,3.68,0,19.09-15.47,34.56-34.56,34.56h-8.36c-1.45,0-2.72.95-3.2,2.25l-.02.05v.02s-.01.01-.01.01h0s0,.02,0,.02v.02s-.01.02-.01.02v.02s0,0,0,0h0s0,.03,0,.03v.02s-.01.02-.01.02v.02s0,0,0,0h0s0,.03,0,.03v.02s0,.02,0,.02v.02s0,0,0,0v.02s0,.02,0,.02v.02s0,.02,0,.02h0s0,.02,0,.02v.02s0,.02,0,.02v.02s0,.02,0,.02h0s0,.02,0,.02v.02s0,.02,0,.02v.02s0,.02,0,.02h0s0,.02,0,.02v.02s0,.02,0,.02v.02s0,.02,0,.02v.02s0,.02,0,.02v.02s0,.02,0,.02h0s0,.02,0,.02v.02s0,.02,0,.02v.02s0,.02,0,.02h0s0,.02,0,.02v.02s0,.02,0,.02v.02s0,.02,0,.02h0s0,.02,0,.02v.02s0,.02,0,.02v.02s0,.02,0,.02h0s0,.02,0,.02v.02s0,.02,0,.02v.02s0,.02,0,.02h0s0,.02,0,.02v.04s0,.02,0,.02v.07s0,.02,0,.02v.02s0,0,0,0v.02s0,.02,0,.02v.02s0,.02,0,.02h0s0,.02,0,.02v.02s0,.02,0,.02v.02s0,.02,0,.02h0s0,.02,0,.02v.02s0,.02,0,.02v.02s0,.02,0,.02h0s0,.02,0,.02v.02s0,.02,0,.02v.02s0,.02,0,.02h0s0,.02,0,.02v.02s0,.02,0,.02v.02s0,.02,0,.02v.02s0,.02,0,.02v.02s0,.02,0,.02h0s0,.02,0,.02v.02s0,.02,0,.02v.02s0,.02,0,.02h0s0,.02,0,.02v.02s0,.02,0,.02v.02s0,.02,0,.02h0s0,.02,0,.02v.02s0,.02,0,.02v.02s0,.02,0,.02h0s0,.02,0,.02v.02s0,.02,0,.02v.02s0,.01,0,.01h0s0,.02,0,.02v.02s.01.02.01.02v.02s0,0,0,0h0s0,.03,0,.03v.02s.01.02.01.02v.02s0,0,0,0h0s0,.03,0,.03l.02.05c.49,1.3,1.75,2.25,3.2,2.25h23.47c8.92,0,16.21,7.29,16.21,16.21,0,.61-.04,1.22-.1,1.83l-.16,1.42h-13.49l.76-2.14c.13-.36.19-.73.19-1.12,0-1.86-1.56-3.41-3.41-3.41h-23.47c-7.81,0-14.37-5.58-15.88-12.96h-.06l-.16-1.42v-.06s0-.03,0-.03v-.03s0-.03,0-.03v-.03s0,0,0,0v-.02s0-.03,0-.03v-.06s0-.03,0-.03l-.02-.2v-.03s0-.03,0-.03v-.02s0,0,0,0v-.03s0-.03,0-.03l-.02-.23v-.03s0-.03,0-.03v-.03s0-.03,0-.03h0s0-.03,0-.03v-.03s0-.03,0-.03v-.32s-.01-.01-.01-.01v-.02s0-.4,0-.4v-.4s0-.01,0-.01h0s.01-.33.01-.33v-.03s0-.03,0-.03v-.03s0,0,0,0v-.03s0-.03,0-.03v-.03s0-.03,0-.03l.02-.23v-.03s0-.03,0-.03h0s0-.03,0-.03v-.03s0-.03,0-.03l.02-.2v-.03s0-.06,0-.06v-.03s0-.02,0-.02h0s0-.04,0-.04v-.03s0-.03,0-.03v-.03s0-.06,0-.06l.16-1.42h.06c.55-2.67,1.76-5.1,3.44-7.12-8.36-6.31-13.76-16.32-13.76-27.6,0-19.09,15.47-34.56,34.56-34.56h0Zm-21.76,34.56c0,12.02,9.73,21.76,21.76,21.76s21.76-9.73,21.76-21.76-9.73-21.76-21.76-21.76-21.76,9.73-21.76,21.76h0Z"/>
  <path class="cls-2" d="m289.9,206.77h-12.99v-89.41h12.99v89.41h0Z"/>
  <path class="cls-2" d="m393.34,179.14c2.77,9.05,11.18,15.36,20.8,15.36,6.72,0,13.01-3.07,17.14-8.35l.48-.62h14.59l-1.12,2.3c-5.79,11.91-17.85,19.47-31.1,19.47-19.09,0-34.56-15.47-34.56-34.56s15.47-34.56,34.56-34.56,34.56,15.47,34.56,34.56c0,1.68-.12,3.36-.37,5.03l-.2,1.37h-54.8Zm0-12.8h41.61c-2.77-9.05-11.18-15.36-20.8-15.36s-18.03,6.31-20.8,15.36h0Z"/>
  <path class="cls-2" d="m108.82,192.21c-23.48,0-42.52-19.04-42.52-42.52s19.04-42.52,42.52-42.52c19.75,0,36.35,13.47,41.13,31.72h15.62l-.52-2.28c-6.05-26.42-29.64-45.2-56.79-45.2-32.18,0-58.26,26.08-58.26,58.26s26.08,58.26,58.26,58.26c27.14,0,50.74-18.78,56.79-45.2l.52-2.28h-15.61c-4.77,18.26-21.38,31.74-41.14,31.74Z"/>
</svg>