<?xml version="1.0" encoding="UTF-8"?>
<svg id="Layer_1" data-name="Layer 1" xmlns="http://www.w3.org/2000/svg" viewBox="0 0 593 153.54">
  <defs>
    <style>
      .cls-1, .cls-2, .cls-3, .cls-4, .cls-5, .cls-6 {
        stroke-miterlimit: 10;
      }

      .cls-1, .cls-2, .cls-4, .cls-6 {
        stroke-width: 2px;
      }

      .cls-1, .cls-3, .cls-5 {
        fill: none;
      }

      .cls-1, .cls-6 {
        stroke: #969696;
      }

      .cls-2, .cls-3 {
        stroke: #006eaf;
      }

      .cls-2, .cls-4, .cls-6 {
        fill: #fff;
      }

      .cls-7 {
        font-size: 9px;
      }

      .cls-7, .cls-8, .cls-9 {
        fill: #969696;
      }

      .cls-7, .cls-9 {
        font-family: Helvetica, Helvetica;
      }

      .cls-3, .cls-5 {
        stroke-width: 6px;
      }

      .cls-4, .cls-5 {
        stroke: #a50040;
      }

      .cls-9 {
        font-size: 12px;
      }

      .cls-10 {
        letter-spacing: -.11em;
      }

      .cls-11 {
        letter-spacing: -.05em;
      }

      .cls-12 {
        letter-spacing: -.04em;
      }
    </style>
  </defs>
  <line class="cls-5" x1="497.63" y1="86" x2="553.46" y2="86"/>
  <line class="cls-3" x1="437.63" y1="117.22" x2="497.63" y2="86"/>
  <line class="cls-5" x1="437.63" y1="49.78" x2="497.63" y2="86"/>
  <line class="cls-5" x1="79.06" y1="49.78" x2="439.47" y2="49.78"/>
  <rect class="cls-4" x="1" y="29.78" width="78.06" height="40" rx="12.88" ry="12.88"/>
  <line class="cls-5" x1="160.79" y1="35.78" x2="350.9" y2="35.78"/>
  <line class="cls-5" x1="160.79" y1="63.78" x2="350.9" y2="63.78"/>
  <path class="cls-4" d="M350.9,29.78v40c11.05,0,20-8.95,20-20s-8.95-20-20-20Z"/>
  <path class="cls-4" d="M140.79,49.78c0,11.05,8.95,20,20,20V29.78c-11.05,0-20,8.95-20,20Z"/>
  <circle class="cls-6" cx="186.78" cy="35.78" r="5"/>
  <circle class="cls-6" cx="79.06" cy="49.78" r="5"/>
  <circle class="cls-6" cx="186.86" cy="49.78" r="5"/>
  <circle class="cls-6" cx="186.78" cy="63.78" r="5"/>
  <circle class="cls-6" cx="264.26" cy="35.78" r="5"/>
  <circle class="cls-6" cx="264.35" cy="49.78" r="5"/>
  <circle class="cls-6" cx="264.26" cy="63.78" r="5"/>
  <circle class="cls-6" cx="315.77" cy="35.78" r="5"/>
  <circle class="cls-6" cx="315.85" cy="49.78" r="5"/>
  <circle class="cls-6" cx="393.33" cy="49.78" r="5"/>
  <circle class="cls-6" cx="437.63" cy="49.78" r="5"/>
  <circle class="cls-6" cx="315.77" cy="63.78" r="5"/>
  <text class="cls-9" transform="translate(155.43 10.3)"><tspan x="0" y="0">Demultiplex</tspan></text>
  <text class="cls-9" transform="translate(252.49 10.3)"><tspan class="cls-12" x="0" y="0">T</tspan><tspan x="6.89" y="0">rim</tspan></text>
  <text class="cls-9" transform="translate(24.1 22.01)"><tspan x="0" y="0">gDN</tspan><tspan class="cls-11" x="24.01" y="0">A</tspan></text>
  <text class="cls-9" transform="translate(304.1 10.3)"><tspan x="0" y="0">Map</tspan></text>
  <text class="cls-9" transform="translate(383.65 26.78)"><tspan class="cls-10" x="0" y="0">T</tspan><tspan x="6" y="0">ag</tspan></text>
  <text class="cls-9" transform="translate(421.62 26.78)"><tspan x="0" y="0">Count</tspan></text>
  <text class="cls-9" transform="translate(470.62 26.78)"><tspan x="0" y="0">Normalize</tspan></text>
  <text class="cls-7" transform="translate(424.38 81.78)"><tspan x="0" y="0">LOOM</tspan></text>
  <text class="cls-7" transform="translate(383.58 81.78)"><tspan x="0" y="0">BAM</tspan></text>
  <text class="cls-7" transform="translate(170.1 26.78)"><tspan x="0" y="0">Barcode</tspan></text>
  <g>
    <line class="cls-1" x1="393.33" y1="54.78" x2="393.33" y2="65.48"/>
    <polygon class="cls-8" points="390.34 64.6 393.33 69.78 396.32 64.6 390.34 64.6"/>
  </g>
  <g>
    <line class="cls-1" x1="437.63" y1="54.78" x2="437.63" y2="65.48"/>
    <polygon class="cls-8" points="434.64 64.6 437.63 69.78 440.62 64.6 434.64 64.6"/>
  </g>
  <text class="cls-7" transform="translate(42.53 46.08)"><tspan x="0" y="0">Reads</tspan><tspan x="-31.03" y="10.8">adapter config</tspan></text>
  <line class="cls-3" x1="79.06" y1="117.22" x2="439.47" y2="117.22"/>
  <rect class="cls-2" x="1" y="97.22" width="78.06" height="40" rx="12.88" ry="12.88"/>
  <line class="cls-3" x1="160.79" y1="103.22" x2="350.9" y2="103.22"/>
  <line class="cls-3" x1="160.79" y1="131.22" x2="350.9" y2="131.22"/>
  <path class="cls-2" d="M350.9,97.22v40c11.05,0,20-8.95,20-20s-8.95-20-20-20Z"/>
  <path class="cls-2" d="M140.79,117.22c0,11.05,8.95,20,20,20v-40c-11.05,0-20,8.95-20,20Z"/>
  <circle class="cls-6" cx="186.78" cy="103.22" r="5"/>
  <circle class="cls-6" cx="79.06" cy="117.22" r="5"/>
  <circle class="cls-6" cx="186.86" cy="117.22" r="5"/>
  <circle class="cls-6" cx="186.78" cy="131.22" r="5"/>
  <circle class="cls-6" cx="264.26" cy="103.22" r="5"/>
  <circle class="cls-6" cx="264.35" cy="117.22" r="5"/>
  <circle class="cls-6" cx="264.26" cy="131.22" r="5"/>
  <circle class="cls-6" cx="315.77" cy="103.22" r="5"/>
  <circle class="cls-6" cx="315.85" cy="117.22" r="5"/>
  <circle class="cls-6" cx="393.33" cy="117.22" r="5"/>
  <circle class="cls-6" cx="437.63" cy="117.22" r="5"/>
  <circle class="cls-6" cx="497.63" cy="86" r="5"/>
  <circle class="cls-6" cx="553.46" cy="86" r="5"/>
  <circle class="cls-6" cx="315.77" cy="131.22" r="5"/>
  <text class="cls-9" transform="translate(4.68 89.45)"><tspan x="0" y="0">gDN</tspan><tspan class="cls-11" x="24.01" y="0">A</tspan><tspan x="31.35" y="0" xml:space="preserve"> control</tspan></text>
  <text class="cls-7" transform="translate(424.38 149.21)"><tspan x="0" y="0">LOOM</tspan></text>
  <text class="cls-7" transform="translate(383.58 149.21)"><tspan x="0" y="0">BAM</tspan></text>
  <g>
    <line class="cls-1" x1="393.33" y1="122.22" x2="393.33" y2="132.91"/>
    <polygon class="cls-8" points="390.34 132.04 393.33 137.22 396.32 132.04 390.34 132.04"/>
  </g>
  <text class="cls-7" transform="translate(42.53 113.52)"><tspan x="0" y="0">Reads</tspan><tspan x="-31.03" y="10.8">adapter config</tspan></text>
  <g>
    <line class="cls-1" x1="437.63" y1="122.22" x2="437.63" y2="132.91"/>
    <polygon class="cls-8" points="434.64 132.04 437.63 137.22 440.62 132.04 434.64 132.04"/>
  </g>
  <text class="cls-7" transform="translate(484.38 117.99)"><tspan x="0" y="0">LOOM</tspan></text>
  <g>
    <line class="cls-1" x1="497.63" y1="91" x2="497.63" y2="101.69"/>
    <polygon class="cls-8" points="494.64 100.82 497.63 106 500.62 100.82 494.64 100.82"/>
  </g>
  <text class="cls-7" transform="translate(565.98 89.22)"><tspan x="0" y="0">Report</tspan></text>
</svg>